<?xml version="1.0" encoding="utf-8"?>
<!-- Generator: Adobe Illustrator 16.0.0, SVG Export Plug-In . SVG Version: 6.00 Build 0)  -->
<!DOCTYPE svg PUBLIC "-//W3C//DTD SVG 1.1//EN" "http://www.w3.org/Graphics/SVG/1.1/DTD/svg11.dtd">
<svg version="1.1" id="Layer_1" xmlns="http://www.w3.org/2000/svg" xmlns:xlink="http://www.w3.org/1999/xlink" x="0px" y="0px"
	 width="1056.2px" height="516.5px" viewBox="0 0 1056.2 516.5" enable-background="new 0 0 1056.2 516.5" xml:space="preserve">
<path fill="#FFC842" stroke="#FDCB6E" stroke-width="5" stroke-miterlimit="10" d="M901.9,305.8c-78.8,0-124-19.2-170.3-133.6
	c-14.7,19.4-29.4,38.8-44.1,58.2l-42.6,50.3l-40.1-84.5c-17.6-39.8-35.3-79.7-52.9-119.5c-0.1,2-0.1,4-0.2,6.1
	c-0.8,24.7-1.6,194.3,0.8,218.7l-13.9,0.4c-1-72.4-1.2-181.9-0.8-219.5c0.1-12.3,0.8-25,0.8-37.3V11.8l13.4,30.3
	c21.9,49.5,43.8,98.9,65.7,148.4l30.4,68.7l28.3-37.3c17.2-22.7,34.4-45.4,51.6-68.1l7.6-10l4.5,11.7c26.8,69.7,52.6,106.5,86.3,123
	c33,16.2,75.2,14.1,133.6,11.2c27.3-1.4,58.3-2.9,93.8-2.9v14c-35.1,0-65.9,1.5-93.1,2.9C939.1,304.8,919.6,305.8,901.9,305.8z"/>
<path fill="#FFC842" stroke="#FDCB6E" stroke-width="5" stroke-miterlimit="10" d="M458.4,480.5l0.1-32.6V48.8L315.2,292.5
	c-4.8-17.4-11.6-34.4-18.2-50.9c-7.5-18.7-15.2-38-19.7-57.2l-4.6-19.9l-8.6,18.5c-24,51.8-50.5,81-85.9,94.7
	c-33.2,12.9-72.2,14.7-121.5,13.2c-17.2-0.5-35-0.1-54.3-0.1v13c19.1,0,36.8,0.5,53.9,1.1c94.9,2.9,159.1,1.8,212.3-99.4
	c4.4,14,10,27.8,15.4,41.3c8.6,21.4,17.5,43.5,21.4,65.7l3.3,18.7l135.8-230.9v336.9l-0.3,43.5c0,20.9-3.7,27.8-23.5,30.4v3
	c10.8-0.2,19.4-0.4,30.4-0.4c11,0,20.1,0.2,31.3,0.4v-3C462.2,508.6,458.4,501.9,458.4,480.5z"/>
<path fill="none" stroke="#BE1E2D" stroke-miterlimit="10" d="M486.9,479.2"/>
<path fill="none" stroke="#BE1E2D" stroke-miterlimit="10" d="M422.7,479.2"/>
</svg>
